<?xml version="1.0" encoding="utf-8"?>
<!-- Generator: Adobe Illustrator 16.0.0, SVG Export Plug-In . SVG Version: 6.00 Build 0)  -->
<!DOCTYPE svg PUBLIC "-//W3C//DTD SVG 1.1//EN" "http://www.w3.org/Graphics/SVG/1.1/DTD/svg11.dtd">
<svg version="1.1" id="Layer_1" xmlns="http://www.w3.org/2000/svg" xmlns:xlink="http://www.w3.org/1999/xlink" x="0px" y="0px"
	 width="133.621px" height="95.689px" viewBox="0 0 133.621 95.689" enable-background="new 0 0 133.621 95.689"
	 xml:space="preserve">
<g enable-background="new    ">
	<path fill="#FCFCFC" d="M3.147,47.881c0.237-0.234,0.514-0.546,0.829-0.932c0.317-0.386,0.672-0.814,1.066-1.285
		c1.736-1.847,3.423-3.502,5.062-4.963c1.638-1.461,3.188-2.763,4.648-3.905c0.75-0.604,1.658-1.386,2.724-2.343
		c1.065-0.958,2.309-2.057,3.73-3.3c1.421-0.47,2.98-1.008,4.678-1.612c1.064,0,1.853,0.294,2.365,0.882s0.769,1.437,0.769,2.544
		c0,0.941-0.089,1.957-0.266,3.049c-0.178,1.092-0.424,2.209-0.739,3.351c-0.355,0.907-0.65,1.781-0.887,2.62
		c0,0.235,0.059,0.412,0.178,0.529c0.118,0.117,0.315,0.177,0.591,0.177c0.591-0.235,1.734-1.075,3.43-2.521
		c1.695-1.443,3.922-3.459,6.682-6.047c2.366-2.217,4.436-3.871,6.209-4.963c1.774-1.091,3.193-1.638,4.258-1.638
		c1.142,0,1.978,0.36,2.51,1.083c0.532,0.723,0.798,1.789,0.798,3.199c0,2.05-0.178,4.022-0.532,5.921
		c-0.354,1.897-0.964,3.721-1.831,5.467c-0.158,0.336-0.257,0.622-0.296,0.855c-0.04,0.235-0.059,0.454-0.059,0.655
		c0,0.236,0.237,0.454,0.709,0.655c0.314-0.234,0.678-0.571,1.092-1.008c0.414-0.437,0.896-0.99,1.448-1.663
		c0.905-0.639,1.811-1.276,2.716-1.915c0.906-0.639,1.891-1.292,2.955-1.965c1.102-0.739,2.225-1.303,3.367-1.688
		s2.264-0.58,3.367-0.58c0.197,0,0.394,0.05,0.59,0.151c0.197,0.101,0.394,0.219,0.591,0.353c0.906,0.672,1.654,1.285,2.246,1.839
		c0.59,0.556,1.004,1.033,1.239,1.437c1.536,2.688,2.905,4.695,4.106,6.021c1.201,1.328,2.254,1.991,3.16,1.991
		c0.197,0,0.394-0.042,0.59-0.126c0.197-0.083,0.395-0.192,0.592-0.328c0.906,1.646,1.676,3.192,2.307,4.637
		c-1.418,0.94-2.679,1.653-3.781,2.142c-1.104,0.487-2.069,0.729-2.896,0.729c-2.719,0-5.525-1.503-8.421-4.51
		c-2.896-3.006-5.112-4.51-6.647-4.51c-2.049,0-5.457,2.579-10.223,7.734c-4.767,5.156-7.741,7.734-8.923,7.734
		c-0.591,0-1.38-0.051-2.366-0.151c-0.316-0.101-0.552-0.311-0.709-0.629c-0.158-0.319-0.236-0.697-0.236-1.136
		c0-0.503,0.118-1.166,0.354-1.989c0.237-0.822,0.552-1.788,0.946-2.896c0.512-1.411,0.926-2.536,1.242-3.377
		c0.315-0.838,0.493-1.427,0.532-1.763c0.119-0.438,0.286-1.293,0.503-2.57c0.216-1.276,0.502-2.973,0.857-5.089
		c0-0.369-0.118-0.655-0.355-0.856c-0.236-0.202-0.513-0.303-0.828-0.303c-0.276,0-0.583,0.076-0.917,0.227
		c-0.335,0.151-0.72,0.396-1.153,0.73c-0.473,0.437-0.996,0.874-1.567,1.31c-0.572,0.438-1.488,1.059-2.75,1.864
		c-1.38,1.344-2.79,2.713-4.229,4.107c-1.439,1.394-2.908,2.796-4.405,4.207c-2.366,2.352-4.249,4.09-5.647,5.215
		c-1.4,1.126-2.297,1.688-2.691,1.688c-1.187,0-2.086-0.116-2.699-0.352c-0.613-0.234-0.918-0.588-0.918-1.06
		c0-1.107,0.701-3.418,2.104-6.928c1.403-3.511,2.105-5.987,2.105-7.433c0-0.234-0.088-0.428-0.266-0.579
		c-0.177-0.151-0.405-0.228-0.681-0.228c-0.475,0-1.038,0.228-1.69,0.681c-0.652,0.454-1.395,1.168-2.224,2.142
		c-0.555,0.538-1.227,1.159-2.017,1.865c-0.791,0.705-1.759,1.529-2.906,2.469c-0.118,0.271-0.276,0.529-0.474,0.781
		c-0.198,0.252-0.416,0.496-0.652,0.729c-0.158-0.504-0.433-1.125-0.828-1.863C4.292,49.913,3.779,48.989,3.147,47.881z"/>
	<path fill="#FCFCFC" d="M77.777,47.881c0.274-0.269,0.611-0.646,1.005-1.134c0.395-0.487,0.888-1.049,1.479-1.688
		c0.513-0.369,1.103-0.865,1.774-1.486c0.67-0.622,1.419-1.402,2.246-2.343c0.314-0.571,0.699-1.201,1.154-1.891
		c0.451-0.688,0.975-1.503,1.565-2.443c0.235-0.907,0.788-1.94,1.656-3.1c0.866-1.158,2.069-2.46,3.606-3.904
		c2.168-2.05,4.436-4.232,6.801-6.551c1.222-1.545,2.552-2.688,3.992-3.427c1.438-0.738,2.985-1.107,4.642-1.107
		c1.104,0,1.94,0.42,2.514,1.26c0.57,0.84,0.856,2.083,0.856,3.729c0,0.605-0.482,1.546-1.448,2.822
		c-0.968,1.277-2.435,2.906-4.405,4.888c-1.222,1.243-2.504,2.479-3.844,3.704c-1.342,1.228-2.661,2.479-3.962,3.754
		c-0.593,0.472-1.214,0.982-1.863,1.537s-1.351,1.167-2.101,1.839c-0.235,0.706-0.491,1.495-0.768,2.368
		c0,1.312,0.098,2.444,0.295,3.401c0.197,0.958,0.492,1.771,0.887,2.443c0.197,0.234,0.621,0.765,1.271,1.588
		c0.65,0.822,1.527,1.89,2.633,3.199c0.274,0.336,0.609,0.673,1.004,1.009c0.396,0.336,0.849,0.672,1.361,1.008
		c0.592-0.202,1.734-1.102,3.43-2.696c1.694-1.595,3.98-3.854,6.859-6.777l2.247,4.637c-0.276,0.27-0.798,0.813-1.567,1.638
		c-0.769,0.823-1.705,1.907-2.809,3.25c-1.262,1.411-2.543,2.923-3.844,4.534c0,0.337,0.187,0.723,0.562,1.16
		c0.374,0.436,0.837,0.923,1.39,1.461c1.025,1.008,1.902,2.316,2.633,3.93c0.729,1.613,1.289,3.578,1.685,5.896
		c-0.039,0.167-0.088,0.436-0.146,0.806c-0.062,0.369-0.109,0.788-0.148,1.26c-0.473,3.862-3.263,7.727-8.367,11.589
		c-5.105,3.863-9.926,5.795-14.459,5.795c-2.09,0-3.756-0.227-4.996-0.68c-1.242-0.454-2.121-1.135-2.633-2.041
		c-0.197-0.438-0.355-1.294-0.473-2.57c-0.119-1.276-0.178-2.973-0.178-5.089c0-0.202,0.108-0.597,0.324-1.185
		c0.219-0.588,0.582-1.385,1.096-2.394c0.273-0.673,0.658-1.368,1.151-2.092c0.492-0.723,1.015-1.504,1.567-2.343
		c0.552-0.706,1.113-1.396,1.686-2.065c0.571-0.673,1.113-1.345,1.627-2.016c1.262-1.177,2.385-2.218,3.37-3.125
		c0.748-0.639,1.33-1.242,1.744-1.813c0.414-0.57,0.621-1.074,0.621-1.512c-1.341-1.579-2.683-3.091-4.021-4.535
		c-1.42-1.512-2.572-3.021-3.459-4.533c-0.889-1.513-1.471-3.058-1.746-4.638c-0.039-0.201-0.197-0.52-0.474-0.957
		c-0.905,0.739-1.794,1.495-2.659,2.269c-0.158-0.504-0.435-1.125-0.828-1.864C78.921,49.913,78.408,48.989,77.777,47.881z
		 M97.174,69.044c-0.236,0-0.779,0.471-1.627,1.41c-0.848,0.941-2.001,2.335-3.459,4.185c-0.828,1.106-1.656,2.231-2.484,3.375
		c-0.826,1.143-1.694,2.268-2.602,3.377c-0.316,0.368-0.77,1.241-1.359,2.618c-0.592,1.377-0.888,2.25-0.888,2.621
		c0,0.638,0.207,1.107,0.621,1.41c0.413,0.303,1.054,0.453,1.922,0.453c3.035,0,6.149-1.402,9.343-4.207
		c3.194-2.805,4.791-5.501,4.791-8.087c0-0.538-0.119-1.168-0.354-1.89c-0.236-0.724-0.554-1.521-0.945-2.395
		c-0.514-0.975-1.006-1.696-1.479-2.167C98.18,69.278,97.686,69.044,97.174,69.044z"/>
</g>
<g>
	<path fill="#FCFCFC" d="M119.355,5.078c1.152,0,2.262,0.289,3.32,0.866s1.895,1.405,2.501,2.481
		c0.605,1.078,0.909,2.206,0.909,3.386c0,1.172-0.298,2.29-0.893,3.353c-0.596,1.063-1.424,1.895-2.487,2.487
		c-1.063,0.595-2.183,0.892-3.354,0.892s-2.289-0.297-3.353-0.892s-1.894-1.424-2.487-2.487c-0.595-1.063-0.893-2.181-0.893-3.353
		c0-1.18,0.304-2.308,0.908-3.386c0.606-1.076,1.44-1.904,2.502-2.481C117.09,5.367,118.201,5.078,119.355,5.078z M119.363,6.396
		c-0.926,0-1.813,0.229-2.662,0.692c-0.85,0.463-1.52,1.128-2.01,1.995c-0.487,0.867-0.732,1.775-0.732,2.727
		c0,0.941,0.239,1.843,0.716,2.696c0.479,0.855,1.146,1.523,2,2.006c0.854,0.479,1.752,0.721,2.688,0.721
		c0.943,0,1.843-0.24,2.693-0.721c0.854-0.48,1.521-1.148,2-2.006c0.479-0.854,0.721-1.755,0.721-2.696
		c0-0.949-0.243-1.857-0.733-2.727c-0.487-0.867-1.16-1.532-2.012-1.995C121.178,6.628,120.29,6.396,119.363,6.396z M116.314,15.414
		V8.269h1.449c1.358,0,2.12,0.006,2.284,0.018c0.479,0.041,0.854,0.136,1.121,0.286c0.267,0.149,0.488,0.378,0.668,0.686
		c0.179,0.31,0.269,0.649,0.269,1.024c0,0.516-0.168,0.957-0.506,1.323c-0.336,0.366-0.811,0.593-1.418,0.681
		c0.217,0.082,0.383,0.171,0.5,0.27c0.116,0.097,0.277,0.278,0.482,0.549c0.053,0.068,0.229,0.358,0.525,0.87l0.846,1.439h-1.793
		l-0.6-1.16c-0.402-0.777-0.736-1.27-1.002-1.472c-0.264-0.202-0.598-0.303-1.002-0.303h-0.377v2.936h-1.449v-0.002H116.314z
		 M117.764,11.354h0.59c0.838,0,1.357-0.032,1.561-0.099c0.203-0.063,0.361-0.177,0.479-0.338c0.116-0.161,0.176-0.344,0.176-0.549
		c0-0.199-0.059-0.376-0.172-0.532c-0.113-0.153-0.275-0.267-0.486-0.334c-0.211-0.065-0.729-0.101-1.557-0.101h-0.59V11.354z"/>
</g>
</svg>
