<?xml version="1.0" encoding="utf-8"?>
<!-- Generator: Adobe Illustrator 16.0.0, SVG Export Plug-In . SVG Version: 6.00 Build 0)  -->
<!DOCTYPE svg PUBLIC "-//W3C//DTD SVG 1.1//EN" "http://www.w3.org/Graphics/SVG/1.1/DTD/svg11.dtd">
<svg version="1.1" id="Layer_1" xmlns="http://www.w3.org/2000/svg" xmlns:xlink="http://www.w3.org/1999/xlink" x="0px" y="0px"
	 width="133.621px" height="95.689px" viewBox="0 0 133.621 95.689" enable-background="new 0 0 133.621 95.689"
	 xml:space="preserve">
<g enable-background="new    ">
	<path fill="#ED1E79" d="M3.147,47.881c0.237-0.235,0.514-0.546,0.829-0.932c0.317-0.386,0.672-0.814,1.066-1.285
		c1.736-1.847,3.423-3.502,5.062-4.963c1.638-1.461,3.188-2.763,4.648-3.905c0.75-0.605,1.658-1.386,2.724-2.343
		c1.065-0.958,2.309-2.057,3.73-3.3c1.421-0.47,2.98-1.008,4.678-1.612c1.064,0,1.853,0.294,2.365,0.882
		c0.512,0.588,0.769,1.436,0.769,2.544c0,0.941-0.089,1.957-0.266,3.048c-0.178,1.092-0.424,2.209-0.739,3.351
		c-0.355,0.907-0.65,1.781-0.887,2.62c0,0.235,0.059,0.412,0.178,0.529c0.118,0.118,0.315,0.177,0.591,0.177
		c0.591-0.235,1.734-1.075,3.43-2.52c1.695-1.444,3.922-3.459,6.682-6.047c2.366-2.217,4.436-3.871,6.209-4.963
		c1.774-1.091,3.193-1.638,4.258-1.638c1.142,0,1.978,0.361,2.51,1.083c0.532,0.723,0.798,1.789,0.798,3.199
		c0,2.05-0.178,4.023-0.532,5.921c-0.354,1.898-0.964,3.721-1.831,5.467c-0.158,0.336-0.257,0.622-0.296,0.856
		c-0.04,0.235-0.059,0.454-0.059,0.655c0,0.236,0.237,0.454,0.709,0.655c0.314-0.234,0.678-0.571,1.092-1.008
		c0.414-0.436,0.896-0.99,1.448-1.663c0.905-0.638,1.811-1.276,2.716-1.915c0.906-0.638,1.891-1.292,2.955-1.965
		c1.102-0.739,2.225-1.302,3.367-1.688c1.142-0.386,2.264-0.58,3.367-0.58c0.197,0,0.394,0.05,0.59,0.151
		c0.197,0.101,0.394,0.219,0.591,0.353c0.906,0.672,1.654,1.285,2.246,1.839c0.59,0.555,1.003,1.033,1.239,1.436
		c1.536,2.688,2.905,4.695,4.106,6.021c1.201,1.328,2.254,1.991,3.16,1.991c0.197,0,0.394-0.042,0.59-0.126
		c0.197-0.083,0.395-0.193,0.592-0.328c0.906,1.646,1.676,3.192,2.307,4.636c-1.418,0.941-2.679,1.654-3.782,2.142
		c-1.103,0.487-2.069,0.73-2.896,0.73c-2.719,0-5.525-1.503-8.421-4.51c-2.896-3.006-5.112-4.51-6.647-4.51
		c-2.049,0-5.457,2.579-10.223,7.734c-4.767,5.157-7.741,7.735-8.923,7.735c-0.591,0-1.38-0.051-2.366-0.152
		c-0.316-0.1-0.552-0.31-0.709-0.629c-0.158-0.319-0.236-0.697-0.236-1.135c0-0.503,0.118-1.166,0.354-1.99
		c0.237-0.822,0.552-1.788,0.946-2.896c0.512-1.411,0.926-2.536,1.242-3.377c0.315-0.838,0.493-1.427,0.532-1.763
		c0.119-0.437,0.286-1.293,0.503-2.57c0.216-1.276,0.502-2.973,0.857-5.089c0-0.369-0.118-0.655-0.355-0.856
		c-0.236-0.202-0.513-0.303-0.828-0.303c-0.276,0-0.583,0.076-0.917,0.227c-0.335,0.151-0.72,0.395-1.153,0.73
		c-0.473,0.437-0.996,0.874-1.567,1.31c-0.572,0.437-1.488,1.058-2.75,1.864c-1.38,1.344-2.79,2.713-4.229,4.107
		c-1.439,1.394-2.908,2.796-4.405,4.207c-2.366,2.352-4.249,4.09-5.647,5.215c-1.4,1.126-2.297,1.688-2.691,1.688
		c-1.187,0-2.086-0.117-2.699-0.352c-0.613-0.234-0.918-0.588-0.918-1.059c0-1.108,0.701-3.418,2.104-6.928
		c1.403-3.511,2.105-5.988,2.105-7.433c0-0.234-0.088-0.428-0.266-0.579c-0.177-0.151-0.405-0.227-0.681-0.227
		c-0.475,0-1.038,0.227-1.69,0.68c-0.652,0.454-1.395,1.168-2.224,2.142c-0.555,0.538-1.227,1.159-2.017,1.865
		c-0.791,0.705-1.759,1.529-2.906,2.469c-0.118,0.27-0.276,0.529-0.474,0.781s-0.416,0.496-0.652,0.73
		c-0.158-0.504-0.433-1.125-0.828-1.864C4.292,49.913,3.779,48.989,3.147,47.881z"/>
	<path fill="#ED1E79" d="M77.777,47.881c0.275-0.269,0.611-0.646,1.005-1.134c0.395-0.487,0.888-1.049,1.479-1.688
		c0.512-0.369,1.103-0.865,1.774-1.486c0.67-0.622,1.419-1.402,2.246-2.343c0.315-0.571,0.7-1.201,1.154-1.89
		c0.452-0.688,0.975-1.503,1.566-2.444c0.236-0.907,0.788-1.94,1.656-3.099c0.866-1.159,2.069-2.46,3.607-3.905
		c2.167-2.049,4.435-4.232,6.801-6.55c1.221-1.545,2.551-2.688,3.991-3.427c1.438-0.738,2.986-1.108,4.642-1.108
		c1.104,0,1.941,0.42,2.514,1.26c0.57,0.84,0.857,2.083,0.857,3.729c0,0.605-0.483,1.546-1.449,2.822
		c-0.967,1.277-2.434,2.906-4.405,4.888c-1.222,1.243-2.504,2.478-3.844,3.704c-1.341,1.227-2.661,2.478-3.962,3.754
		c-0.592,0.471-1.213,0.982-1.863,1.537c-0.65,0.554-1.351,1.167-2.1,1.839c-0.236,0.706-0.492,1.495-0.768,2.368
		c0,1.311,0.098,2.444,0.295,3.401c0.197,0.958,0.492,1.772,0.887,2.444c0.197,0.234,0.621,0.764,1.271,1.587s1.527,1.89,2.632,3.2
		c0.275,0.336,0.61,0.672,1.005,1.008s0.848,0.672,1.361,1.008c0.591-0.202,1.734-1.101,3.43-2.696
		c1.694-1.595,3.98-3.854,6.859-6.777l2.247,4.636c-0.276,0.27-0.798,0.814-1.567,1.638c-0.769,0.823-1.705,1.907-2.809,3.25
		c-1.262,1.411-2.543,2.923-3.844,4.534c0,0.337,0.187,0.723,0.562,1.16c0.374,0.436,0.837,0.923,1.39,1.461
		c1.025,1.008,1.902,2.317,2.632,3.93c0.729,1.613,1.29,3.578,1.685,5.896c-0.039,0.167-0.088,0.436-0.146,0.806
		c-0.061,0.369-0.109,0.788-0.148,1.26c-0.473,3.862-3.263,7.726-8.367,11.589c-5.106,3.863-9.926,5.795-14.459,5.795
		c-2.09,0-3.756-0.227-4.997-0.68c-1.242-0.454-2.12-1.135-2.632-2.041c-0.197-0.438-0.355-1.294-0.473-2.57
		c-0.119-1.277-0.178-2.973-0.178-5.089c0-0.202,0.109-0.597,0.325-1.185c0.218-0.588,0.581-1.385,1.095-2.393
		c0.274-0.673,0.659-1.369,1.152-2.092c0.492-0.723,1.015-1.504,1.567-2.343c0.552-0.706,1.113-1.395,1.685-2.065
		c0.572-0.673,1.114-1.345,1.627-2.016c1.262-1.177,2.385-2.218,3.371-3.125c0.748-0.639,1.33-1.242,1.744-1.813
		s0.621-1.075,0.621-1.512c-1.341-1.579-2.682-3.091-4.021-4.535c-1.42-1.512-2.572-3.022-3.459-4.534
		c-0.888-1.512-1.47-3.057-1.745-4.637c-0.04-0.201-0.198-0.52-0.474-0.957c-0.906,0.739-1.794,1.495-2.66,2.268
		c-0.158-0.504-0.434-1.125-0.828-1.864C78.921,49.913,78.408,48.989,77.777,47.881z M97.174,69.044c-0.236,0-0.779,0.47-1.627,1.41
		c-0.848,0.941-2.001,2.335-3.459,4.184c-0.828,1.107-1.656,2.232-2.484,3.375c-0.827,1.143-1.695,2.268-2.602,3.377
		c-0.316,0.369-0.769,1.242-1.359,2.619c-0.592,1.377-0.888,2.25-0.888,2.621c0,0.637,0.207,1.107,0.621,1.41
		c0.413,0.303,1.054,0.453,1.922,0.453c3.035,0,6.149-1.402,9.343-4.207s4.791-5.501,4.791-8.087c0-0.538-0.119-1.168-0.355-1.89
		c-0.236-0.723-0.553-1.521-0.945-2.394c-0.514-0.975-1.006-1.696-1.479-2.167C98.179,69.278,97.686,69.044,97.174,69.044z"/>
</g>
<g>
	<path fill="#ED1E79" d="M119.355,5.078c1.153,0,2.262,0.289,3.321,0.866s1.894,1.405,2.501,2.482
		c0.605,1.078,0.909,2.206,0.909,3.385c0,1.172-0.298,2.29-0.892,3.353c-0.596,1.063-1.424,1.894-2.488,2.487
		c-1.063,0.595-2.182,0.892-3.354,0.892s-2.289-0.297-3.353-0.892s-1.894-1.424-2.487-2.487c-0.595-1.063-0.893-2.181-0.893-3.353
		c0-1.179,0.304-2.307,0.908-3.385c0.607-1.077,1.441-1.905,2.502-2.482S118.201,5.078,119.355,5.078z M119.363,6.396
		c-0.926,0-1.813,0.23-2.662,0.693s-1.52,1.128-2.01,1.995c-0.487,0.867-0.732,1.775-0.732,2.726c0,0.942,0.239,1.843,0.716,2.697
		c0.479,0.855,1.146,1.523,2,2.005c0.854,0.48,1.752,0.721,2.688,0.721c0.943,0,1.843-0.24,2.693-0.721
		c0.854-0.48,1.521-1.148,2-2.005c0.48-0.855,0.721-1.755,0.721-2.697c0-0.949-0.243-1.857-0.733-2.726
		c-0.487-0.867-1.16-1.532-2.012-1.995C121.178,6.628,120.29,6.396,119.363,6.396z M116.314,15.414V8.269h1.449
		c1.359,0,2.121,0.006,2.285,0.018c0.48,0.041,0.854,0.136,1.121,0.286c0.266,0.149,0.488,0.378,0.668,0.686
		c0.178,0.309,0.268,0.649,0.268,1.024c0,0.516-0.168,0.957-0.506,1.323c-0.336,0.366-0.81,0.593-1.418,0.681
		c0.217,0.082,0.383,0.171,0.5,0.269c0.117,0.097,0.278,0.279,0.483,0.549c0.053,0.069,0.229,0.359,0.526,0.87l0.845,1.44h-1.793
		l-0.599-1.16c-0.403-0.778-0.737-1.27-1.002-1.472c-0.264-0.202-0.598-0.303-1.002-0.303h-0.377v2.936h-1.449V15.414z
		 M117.764,11.354h0.59c0.838,0,1.357-0.032,1.56-0.098c0.203-0.063,0.362-0.177,0.479-0.338c0.116-0.161,0.176-0.344,0.176-0.549
		c0-0.199-0.059-0.376-0.172-0.532c-0.114-0.154-0.276-0.267-0.487-0.334c-0.211-0.066-0.729-0.101-1.556-0.101h-0.59V11.354z"/>
</g>
</svg>
